<svg xmlns="http://www.w3.org/2000/svg" width="300" height="250" viewBox="0 0 300 250"><defs><linearGradient id="sheen-s72" x1="0" y1="1" x2="1" y2="0"><stop offset="0" stop-color="#8A7223"/><stop offset="0.38" stop-color="#D4AF37"/><stop offset="0.56" stop-color="#F1CE65"/><stop offset="0.74" stop-color="#D4AF37"/><stop offset="1" stop-color="#8A7223"/></linearGradient></defs><rect width="300" height="250" fill="#FFFFFF"/><g opacity="0.55" transform="translate(270.00,30.00) rotate(0) scale(5.94530) translate(-9.810,-10.240)"><g data-mark="hive"><path d="M0.000 -6.080L5.800 -3.040L5.800 3.040L0.000 6.080L-5.800 3.040L-5.800 -3.040Z" fill="none" stroke="#09090B" stroke-width="1" stroke-linejoin="miter" stroke-opacity="0.25"/><path d="M13.080 -6.080L18.880 -3.040L18.880 3.040L13.080 6.080L7.280 3.040L7.280 -3.040Z" fill="none" stroke="#09090B" stroke-width="1" stroke-linejoin="miter" stroke-opacity="0.25"/><path d="M6.540 4.160L12.340 7.200L12.340 13.280L6.540 16.320L0.740 13.280L0.740 7.200Z" fill="none" stroke="#09090B" stroke-width="1" stroke-linejoin="miter" stroke-opacity="0.25"/><path d="M19.620 3.660L25.897 6.950L25.897 13.530L19.620 16.820L13.343 13.530L13.343 6.950Z" fill="#D4AF37"/><path d="M0.000 13.900L6.277 17.190L6.277 23.770L0.000 27.060L-6.277 23.770L-6.277 17.190Z" fill="#D4AF37" opacity="0.55"/><path d="M13.080 14.400L18.880 17.440L18.880 23.520L13.080 26.560L7.280 23.520L7.280 17.440Z" fill="none" stroke="#09090B" stroke-width="1" stroke-linejoin="miter" stroke-opacity="0.25"/></g></g><g transform="translate(25.50,203.96) scale(0.22033)"><path d="M33.9083 68.758Q24.1657 68.758 16.4786 64.7737Q8.79142 60.7894 4.39571 53.2965Q0 45.8035 0 35.3862V33.3718Q0 22.9544 4.39571 15.4615Q8.79142 7.96854 16.4786 3.98427Q24.1657 0 33.9083 0Q43.6509 0 51.3381 3.98427Q59.0252 7.96854 63.4209 15.4615Q67.8166 22.9544 67.8166 33.3718V35.3862Q67.8166 45.8035 63.4209 53.2965Q59.0252 60.7894 51.3381 64.7737Q43.6509 68.758 33.9083 68.758ZM33.9083 55.3486Q42.1895 55.3486 47.4689 50.0198Q52.7484 44.691 52.7484 35.0142V33.7437Q52.7484 24.067 47.5233 18.7382Q42.2981 13.4094 33.9083 13.4094Q25.6502 13.4094 20.3592 18.7382Q15.0683 24.067 15.0683 33.7437V35.0142Q15.0683 44.691 20.3592 50.0198Q25.6502 55.3486 33.9083 55.3486Z M176.569 68.758Q169.637 68.758 164.119 66.3453Q158.601 63.9327 155.387 59.2935Q152.173 54.6542 152.173 48.0088Q152.173 41.3403 155.387 36.8558Q158.601 32.3712 164.27 30.1017Q169.94 27.8323 177.174 27.8323H196.047V23.8925Q196.047 18.7316 192.874 15.5274Q189.701 12.3232 182.99 12.3232Q176.411 12.3232 173.049 15.3842Q169.686 18.4452 168.627 23.3593L154.691 18.7315Q156.27 13.6133 159.748 9.39702Q163.225 5.18071 169.049 2.59035Q174.874 0 183.208 0Q195.972 0 203.326 6.42816Q210.681 12.8563 210.681 24.9392V50.4707Q210.681 54.4204 214.368 54.4204H219.795V66.9148H209.197Q204.464 66.9148 201.442 64.5334Q198.42 62.1521 198.42 58.1563V57.8864H196.126Q195.392 59.6967 193.399 62.2985Q191.406 64.9004 187.388 66.8292Q183.369 68.758 176.569 68.758ZM179.05 56.4348Q186.581 56.4348 191.314 52.1592Q196.047 47.8837 196.047 40.6031V39.2405H178.175Q173.175 39.2405 170.208 41.3881Q167.241 43.5358 167.241 47.5513Q167.241 51.5668 170.34 54.0008Q173.439 56.4348 179.05 56.4348Z M227.767 34.6423V32.6279Q227.767 22.3817 231.86 15.0863Q235.953 7.79081 242.768 3.8954Q249.582 0 257.706 0Q266.935 0 271.762 3.33256Q276.589 6.66512 278.81 10.4107H281.042V1.8432H295.801V79.33Q295.801 85.6989 292.104 89.4725Q288.408 93.2462 282.079 93.2462H238.369V80.0541H277.023Q280.779 80.0541 280.779 76.1043V57.2775H278.547Q277.161 59.5683 274.665 61.8904Q272.168 64.2125 268.057 65.7414Q263.946 67.2702 257.706 67.2702Q249.582 67.2702 242.756 63.3748Q235.93 59.4794 231.848 52.1724Q227.767 44.8655 227.767 34.6423ZM261.938 54.0781Q270.151 54.0781 275.573 48.8612Q280.996 43.6443 280.996 34.2704V32.9999Q280.996 23.4943 275.627 18.3432Q270.259 13.1921 261.938 13.1921Q253.749 13.1921 248.315 18.3432Q242.881 23.4943 242.881 32.9999V34.2704Q242.881 43.6443 248.315 48.8612Q253.749 54.0781 261.938 54.0781Z M344.764 68.758Q334.998 68.758 327.583 64.6108Q320.167 60.4636 316.031 52.9048Q311.896 45.346 311.896 35.1689V33.589Q311.896 23.3889 315.977 15.8416Q320.059 8.2944 327.397 4.1472Q334.735 0 344.385 0Q353.881 0 360.956 4.1867Q368.031 8.37341 371.981 15.8515Q375.931 23.3297 375.931 33.2895V38.6974H327.181Q327.468 46.3334 332.587 50.9496Q337.707 55.5658 345.198 55.5658Q352.522 55.5658 356.101 52.3534Q359.681 49.141 361.553 45.0629L373.985 51.4813Q372.119 55.0656 368.63 59.1042Q365.141 63.1428 359.394 65.9504Q353.648 68.758 344.764 68.758ZM327.313 27.2892H360.622Q360.095 20.7986 355.7 16.9954Q351.304 13.1921 344.277 13.1921Q337.055 13.1921 332.691 16.9954Q328.327 20.7986 327.313 27.2892Z M391.548 66.9148V1.8432H406.353V10.9769H408.585Q410.303 7.25429 414.832 3.99908Q419.361 0.743866 428.435 0.743866Q435.956 0.743866 441.695 4.12911Q447.434 7.51435 450.651 13.5903Q453.868 19.6663 453.868 27.9442V66.9148H438.8V29.1226Q438.8 21.1969 434.891 17.3492Q430.983 13.5015 423.9 13.5015Q415.872 13.5015 411.244 18.8237Q406.617 24.146 406.617 33.9445V66.9148Z" fill="#09090B"/><path d="M73.9979 66.9148 98.2261 34.0696 74.3764 1.8432H91.9626L107.9 24.3499H110.131L126.068 1.8432H143.654L119.805 34.0696L144.033 66.9148H126.206L110.131 44.0065H107.9L91.8244 66.9148Z" fill="#D4AF37"/></g><rect x="25.50" y="180.71" width="32.50" height="3.00" rx="1.5" fill="url(#sheen-s72)"/><path d="M26.084 159.33V153.73H28.432Q28.9572 153.73 29.3506 153.911Q29.744 154.093 29.9642 154.427Q30.1844 154.762 30.1844 155.223V155.314Q30.1844 155.84 29.9332 156.156Q29.682 156.473 29.3244 156.603V156.73Q29.6304 156.743 29.812 156.934Q29.9936 157.126 29.9936 157.473V159.33H29.128V157.591Q29.128 157.377 29.014 157.251Q28.9 157.126 28.6512 157.126H26.9496V159.33ZM26.9496 156.339H28.3424Q28.8052 156.339 29.062 156.105Q29.3188 155.87 29.3188 155.461V155.395Q29.3188 154.986 29.0674 154.751Q28.816 154.517 28.3424 154.517H26.9496Z M32.9688 159.442Q32.374 159.442 31.9248 159.19Q31.4756 158.938 31.225 158.48Q30.9744 158.021 30.9744 157.408V157.312Q30.9744 156.697 31.2224 156.239Q31.4704 155.782 31.9142 155.53Q32.358 155.278 32.9388 155.278Q33.5088 155.278 33.9366 155.527Q34.3644 155.776 34.6044 156.225Q34.8444 156.673 34.8444 157.276V157.589H31.808Q31.8268 158.109 32.161 158.414Q32.4952 158.719 32.9896 158.719Q33.4556 158.719 33.6906 158.513Q33.9256 158.306 34.0492 158.035L34.736 158.383Q34.6212 158.61 34.4092 158.857Q34.1972 159.104 33.8508 159.273Q33.5044 159.442 32.9688 159.442ZM31.816 156.955H34.008Q33.976 156.51 33.6858 156.256Q33.3956 156.001 32.9336 156.001Q32.464 156.001 32.1736 156.256Q31.8832 156.51 31.816 156.955Z M37.6716 159.442Q37.0984 159.442 36.6388 159.201Q36.1792 158.959 35.9128 158.503Q35.6464 158.047 35.6464 157.411V157.31Q35.6464 156.67 35.9128 156.216Q36.1792 155.761 36.6388 155.52Q37.0984 155.278 37.6716 155.278Q38.2368 155.278 38.6378 155.482Q39.0388 155.687 39.2796 156.032Q39.5204 156.377 39.592 156.795L38.7924 156.963Q38.7576 156.698 38.6288 156.482Q38.5 156.267 38.2666 156.139Q38.0332 156.012 37.6872 156.012Q37.3412 156.012 37.065 156.166Q36.7888 156.321 36.6292 156.614Q36.4696 156.908 36.4696 157.323V157.397Q36.4696 157.813 36.6292 158.106Q36.7888 158.4 37.065 158.554Q37.3412 158.709 37.6872 158.709Q38.2076 158.709 38.4786 158.439Q38.7496 158.169 38.8192 157.752L39.6188 157.936Q39.526 158.343 39.2824 158.689Q39.0388 159.034 38.6378 159.238Q38.2368 159.442 37.6716 159.442Z M42.4232 159.442Q41.8312 159.442 41.369 159.198Q40.9068 158.954 40.6446 158.499Q40.3824 158.045 40.3824 157.419V157.302Q40.3824 156.676 40.6446 156.221Q40.9068 155.767 41.369 155.522Q41.8312 155.278 42.4232 155.278Q43.0152 155.278 43.4774 155.522Q43.9396 155.767 44.2018 156.221Q44.464 156.676 44.464 157.302V157.419Q44.464 158.045 44.2018 158.499Q43.9396 158.954 43.4774 159.198Q43.0152 159.442 42.4232 159.442ZM42.4232 158.709Q42.9656 158.709 43.3032 158.361Q43.6408 158.013 43.6408 157.397V157.323Q43.6408 156.707 43.3058 156.359Q42.9708 156.012 42.4232 156.012Q41.8836 156.012 41.5446 156.359Q41.2056 156.707 41.2056 157.323V157.397Q41.2056 158.013 41.5446 158.361Q41.8836 158.709 42.4232 158.709Z M45.4944 159.33V155.39H46.3016V155.852H46.4288Q46.5252 155.604 46.7348 155.489Q46.9444 155.374 47.2584 155.374H47.73V156.113H47.2284Q46.8248 156.113 46.5712 156.333Q46.3176 156.552 46.3176 157.013V159.33Z M50.0744 159.442Q49.5856 159.442 49.1694 159.203Q48.7532 158.965 48.5038 158.51Q48.2544 158.055 48.2544 157.419V157.302Q48.2544 156.665 48.5024 156.21Q48.7504 155.756 49.1654 155.517Q49.5804 155.278 50.0744 155.278Q50.4596 155.278 50.7218 155.373Q50.984 155.469 51.1486 155.615Q51.3132 155.761 51.4016 155.925H51.5288V153.73H52.352V159.33H51.5448V158.769H51.4176Q51.2704 159.027 50.9612 159.234Q50.652 159.442 50.0744 159.442ZM50.3112 158.719Q50.8452 158.719 51.1922 158.376Q51.5392 158.032 51.5392 157.397V157.323Q51.5392 156.688 51.1948 156.345Q50.8504 156.001 50.3112 156.001Q49.78 156.001 49.4316 156.345Q49.0832 156.688 49.0832 157.323V157.397Q49.0832 158.032 49.4316 158.376Q49.78 158.719 50.3112 158.719Z M55.3768 159.442Q54.782 159.442 54.3328 159.19Q53.8836 158.938 53.633 158.48Q53.3824 158.021 53.3824 157.408V157.312Q53.3824 156.697 53.6304 156.239Q53.8784 155.782 54.3222 155.53Q54.766 155.278 55.3468 155.278Q55.9168 155.278 56.3446 155.527Q56.7724 155.776 57.0124 156.225Q57.2524 156.673 57.2524 157.276V157.589H54.216Q54.2348 158.109 54.569 158.414Q54.9032 158.719 55.3976 158.719Q55.8636 158.719 56.0986 158.513Q56.3336 158.306 56.4572 158.035L57.144 158.383Q57.0292 158.61 56.8172 158.857Q56.6052 159.104 56.2588 159.273Q55.9124 159.442 55.3768 159.442ZM54.224 156.955H56.416Q56.384 156.51 56.0938 156.256Q55.8036 156.001 55.3416 156.001Q54.872 156.001 54.5816 156.256Q54.2912 156.51 54.224 156.955Z M59.8744 159.442Q59.3856 159.442 58.9694 159.203Q58.5532 158.965 58.3038 158.51Q58.0544 158.055 58.0544 157.419V157.302Q58.0544 156.665 58.3024 156.21Q58.5504 155.756 58.9654 155.517Q59.3804 155.278 59.8744 155.278Q60.2596 155.278 60.5218 155.373Q60.784 155.469 60.9486 155.615Q61.1132 155.761 61.2016 155.925H61.3288V153.73H62.152V159.33H61.3448V158.769H61.2176Q61.0704 159.027 60.7612 159.234Q60.452 159.442 59.8744 159.442ZM60.1112 158.719Q60.6452 158.719 60.9922 158.376Q61.3392 158.032 61.3392 157.397V157.323Q61.3392 156.688 60.9948 156.345Q60.6504 156.001 60.1112 156.001Q59.58 156.001 59.2316 156.345Q58.8832 156.688 58.8832 157.323V157.397Q58.8832 158.032 59.2316 158.376Q59.58 158.719 60.1112 158.719Z M67.2476 159.442Q66.6744 159.442 66.2148 159.201Q65.7552 158.959 65.4888 158.503Q65.2224 158.047 65.2224 157.411V157.31Q65.2224 156.67 65.4888 156.216Q65.7552 155.761 66.2148 155.52Q66.6744 155.278 67.2476 155.278Q67.8128 155.278 68.2138 155.482Q68.6148 155.687 68.8556 156.032Q69.0964 156.377 69.168 156.795L68.3684 156.963Q68.3336 156.698 68.2048 156.482Q68.076 156.267 67.8426 156.139Q67.6092 156.012 67.2632 156.012Q66.9172 156.012 66.641 156.166Q66.3648 156.321 66.2052 156.614Q66.0456 156.908 66.0456 157.323V157.397Q66.0456 157.813 66.2052 158.106Q66.3648 158.4 66.641 158.554Q66.9172 158.709 67.2632 158.709Q67.7836 158.709 68.0546 158.439Q68.3256 158.169 68.3952 157.752L69.1948 157.936Q69.102 158.343 68.8584 158.689Q68.6148 159.034 68.2138 159.238Q67.8128 159.442 67.2476 159.442Z M71.9992 159.442Q71.4072 159.442 70.945 159.198Q70.4828 158.954 70.2206 158.499Q69.9584 158.045 69.9584 157.419V157.302Q69.9584 156.676 70.2206 156.221Q70.4828 155.767 70.945 155.522Q71.4072 155.278 71.9992 155.278Q72.5912 155.278 73.0534 155.522Q73.5156 155.767 73.7778 156.221Q74.04 156.676 74.04 157.302V157.419Q74.04 158.045 73.7778 158.499Q73.5156 158.954 73.0534 159.198Q72.5912 159.442 71.9992 159.442ZM71.9992 158.709Q72.5416 158.709 72.8792 158.361Q73.2168 158.013 73.2168 157.397V157.323Q73.2168 156.707 72.8818 156.359Q72.5468 156.012 71.9992 156.012Q71.4596 156.012 71.1206 156.359Q70.7816 156.707 70.7816 157.323V157.397Q70.7816 158.013 71.1206 158.361Q71.4596 158.709 71.9992 158.709Z M76.682 159.442Q75.9312 159.442 75.4338 159.106Q74.9364 158.77 74.8296 158.093L75.598 157.906Q75.6568 158.237 75.8112 158.426Q75.9656 158.615 76.1924 158.696Q76.4192 158.777 76.682 158.777Q77.0788 158.777 77.2902 158.627Q77.5016 158.478 77.5016 158.238Q77.5016 157.995 77.301 157.883Q77.1004 157.77 76.712 157.701L76.4376 157.652Q76.0384 157.578 75.7112 157.441Q75.384 157.303 75.1886 157.064Q74.9932 156.824 74.9932 156.452Q74.9932 155.891 75.4126 155.584Q75.832 155.278 76.5192 155.278Q77.1832 155.278 77.6106 155.576Q78.038 155.873 78.1628 156.384L77.3976 156.605Q77.328 156.245 77.0956 156.094Q76.8632 155.944 76.5192 155.944Q76.178 155.944 75.9868 156.068Q75.7956 156.191 75.7956 156.421Q75.7956 156.657 75.9836 156.769Q76.1716 156.881 76.494 156.937L76.7684 156.985Q77.1996 157.06 77.5482 157.189Q77.8968 157.318 78.1004 157.555Q78.304 157.792 78.304 158.191Q78.304 158.79 77.8646 159.116Q77.4252 159.442 76.682 159.442Z M80.6632 159.33Q80.2992 159.33 80.086 159.116Q79.8728 158.901 79.8728 158.535V156.082H78.7912V155.39H79.8728V154.08H80.696V155.39H81.8792V156.082H80.696V158.398Q80.696 158.638 80.9256 158.638H81.744V159.33Z M84.458 159.442Q83.7072 159.442 83.2098 159.106Q82.7124 158.77 82.6056 158.093L83.374 157.906Q83.4328 158.237 83.5872 158.426Q83.7416 158.615 83.9684 158.696Q84.1952 158.777 84.458 158.777Q84.8548 158.777 85.0662 158.627Q85.2776 158.478 85.2776 158.238Q85.2776 157.995 85.077 157.883Q84.8764 157.77 84.488 157.701L84.2136 157.652Q83.8144 157.578 83.4872 157.441Q83.16 157.303 82.9646 157.064Q82.7692 156.824 82.7692 156.452Q82.7692 155.891 83.1886 155.584Q83.608 155.278 84.2952 155.278Q84.9592 155.278 85.3866 155.576Q85.814 155.873 85.9388 156.384L85.1736 156.605Q85.104 156.245 84.8716 156.094Q84.6392 155.944 84.2952 155.944Q83.954 155.944 83.7628 156.068Q83.5716 156.191 83.5716 156.421Q83.5716 156.657 83.7596 156.769Q83.9476 156.881 84.27 156.937L84.5444 156.985Q84.9756 157.06 85.3242 157.189Q85.6728 157.318 85.8764 157.555Q86.08 157.792 86.08 158.191Q86.08 158.79 85.6406 159.116Q85.2012 159.442 84.458 159.442Z M87.054 160.419V159.948H87.324Q87.6528 159.948 87.6528 159.619V159.363H87.528Q87.2528 159.363 87.0688 159.195Q86.8848 159.027 86.8848 158.767Q86.8848 158.492 87.0688 158.319Q87.2528 158.145 87.528 158.145Q87.8084 158.145 87.9898 158.324Q88.1712 158.503 88.1712 158.794V159.624Q88.1712 160.419 87.3788 160.419Z M91.4544 159.33 90.7824 155.39H91.606L92.1036 158.776H92.2308L92.9136 155.39H94.2496L94.9324 158.776H95.0596L95.5572 155.39H96.3808L95.7088 159.33H94.328L93.6452 155.944H93.518L92.8352 159.33Z M97.3584 159.33V155.39H98.1816V159.33ZM97.77 154.853Q97.5316 154.853 97.3674 154.697Q97.2032 154.541 97.2032 154.292Q97.2032 154.04 97.3674 153.885Q97.5316 153.73 97.77 153.73Q98.0164 153.73 98.1766 153.885Q98.3368 154.04 98.3368 154.292Q98.3368 154.541 98.1766 154.697Q98.0164 154.853 97.77 154.853Z M100.887 159.33Q100.523 159.33 100.31 159.116Q100.097 158.901 100.097 158.535V156.082H99.0152V155.39H100.097V154.08H100.92V155.39H102.103V156.082H100.92V158.398Q100.92 158.638 101.15 158.638H101.968V159.33Z M103.07 159.33V153.73H103.894V155.945H104.021Q104.096 155.795 104.245 155.652Q104.393 155.508 104.638 155.416Q104.883 155.323 105.257 155.323Q105.707 155.323 106.057 155.523Q106.406 155.722 106.605 156.087Q106.804 156.452 106.804 156.962V159.33H105.981V157.025Q105.981 156.51 105.726 156.268Q105.471 156.026 105.018 156.026Q104.506 156.026 104.2 156.363Q103.894 156.701 103.894 157.339V159.33Z M110.03 159.33V155.39H110.838V155.98H110.965Q111.078 155.736 111.364 155.528Q111.65 155.321 112.217 155.321Q112.667 155.321 113.017 155.52Q113.366 155.719 113.565 156.086Q113.764 156.452 113.764 156.962V159.33H112.941V157.025Q112.941 156.51 112.686 156.267Q112.431 156.023 111.978 156.023Q111.466 156.023 111.16 156.362Q110.854 156.701 110.854 157.339V159.33Z M116.799 159.442Q116.207 159.442 115.745 159.198Q115.283 158.954 115.021 158.499Q114.758 158.045 114.758 157.419V157.302Q114.758 156.676 115.021 156.221Q115.283 155.767 115.745 155.522Q116.207 155.278 116.799 155.278Q117.391 155.278 117.853 155.522Q118.316 155.767 118.578 156.221Q118.84 156.676 118.84 157.302V157.419Q118.84 158.045 118.578 158.499Q118.316 158.954 117.853 159.198Q117.391 159.442 116.799 159.442ZM116.799 158.709Q117.342 158.709 117.679 158.361Q118.017 158.013 118.017 157.397V157.323Q118.017 156.707 117.682 156.359Q117.347 156.012 116.799 156.012Q116.26 156.012 115.921 156.359Q115.582 156.707 115.582 157.323V157.397Q115.582 158.013 115.921 158.361Q116.26 158.709 116.799 158.709Z M123.522 159.442Q122.771 159.442 122.274 159.106Q121.776 158.77 121.67 158.093L122.438 157.906Q122.497 158.237 122.651 158.426Q122.806 158.615 123.032 158.696Q123.259 158.777 123.522 158.777Q123.919 158.777 124.13 158.627Q124.342 158.478 124.342 158.238Q124.342 157.995 124.141 157.883Q123.94 157.77 123.552 157.701L123.278 157.652Q122.878 157.578 122.551 157.441Q122.224 157.303 122.029 157.064Q121.833 156.824 121.833 156.452Q121.833 155.891 122.253 155.584Q122.672 155.278 123.359 155.278Q124.023 155.278 124.451 155.576Q124.878 155.873 125.003 156.384L124.238 156.605Q124.168 156.245 123.936 156.094Q123.703 155.944 123.359 155.944Q123.018 155.944 122.827 156.068Q122.636 156.191 122.636 156.421Q122.636 156.657 122.824 156.769Q123.012 156.881 123.334 156.937L123.608 156.985Q124.04 157.06 124.388 157.189Q124.737 157.318 124.94 157.555Q125.144 157.792 125.144 158.191Q125.144 158.79 124.705 159.116Q124.265 159.442 123.522 159.442Z M127.296 159.442Q126.878 159.442 126.543 159.297Q126.209 159.152 126.014 158.872Q125.82 158.592 125.82 158.193Q125.82 157.79 126.014 157.521Q126.209 157.252 126.55 157.116Q126.891 156.981 127.322 156.981H128.528V156.726Q128.528 156.379 128.318 156.169Q128.108 155.96 127.677 155.96Q127.253 155.96 127.029 156.16Q126.804 156.36 126.731 156.685L125.966 156.435Q126.062 156.117 126.272 155.856Q126.483 155.596 126.835 155.437Q127.186 155.278 127.687 155.278Q128.454 155.278 128.892 155.667Q129.33 156.057 129.33 156.781V158.404Q129.33 158.644 129.554 158.644H129.894V159.33H129.278Q128.998 159.33 128.823 159.185Q128.648 159.039 128.648 158.794V158.769H128.521Q128.464 158.893 128.334 159.053Q128.204 159.213 127.955 159.328Q127.707 159.442 127.296 159.442ZM127.422 158.761Q127.913 158.761 128.22 158.477Q128.528 158.193 128.528 157.701V157.615H127.372Q127.044 157.615 126.843 157.756Q126.643 157.897 126.643 158.169Q126.643 158.441 126.851 158.601Q127.06 158.761 127.422 158.761Z M131.389 159.33 130.058 155.39H130.934L131.98 158.723H132.107L133.153 155.39H134.029L132.698 159.33Z M134.83 159.33V155.39H135.654V159.33ZM135.242 154.853Q135.004 154.853 134.839 154.697Q134.675 154.541 134.675 154.292Q134.675 154.04 134.839 153.885Q135.004 153.73 135.242 153.73Q135.488 153.73 135.649 153.885Q135.809 154.04 135.809 154.292Q135.809 154.541 135.649 154.697Q135.488 154.853 135.242 154.853Z M136.878 159.33V155.39H137.686V155.98H137.813Q137.926 155.736 138.212 155.528Q138.498 155.321 139.065 155.321Q139.515 155.321 139.865 155.52Q140.214 155.719 140.413 156.086Q140.612 156.452 140.612 156.962V159.33H139.789V157.025Q139.789 156.51 139.534 156.267Q139.279 156.023 138.826 156.023Q138.314 156.023 138.008 156.362Q137.702 156.701 137.702 157.339V159.33Z M141.606 157.376V157.259Q141.606 156.638 141.856 156.196Q142.105 155.753 142.521 155.516Q142.938 155.278 143.437 155.278Q144.014 155.278 144.321 155.491Q144.628 155.704 144.77 155.951H144.897V155.39H145.698V160.135Q145.698 160.501 145.489 160.716Q145.28 160.93 144.911 160.93H142.255V160.207H144.648Q144.881 160.207 144.881 159.967V158.711H144.754Q144.665 158.861 144.506 159.012Q144.346 159.162 144.087 159.26Q143.827 159.357 143.437 159.357Q142.938 159.357 142.52 159.12Q142.102 158.883 141.854 158.439Q141.606 157.995 141.606 157.376ZM143.663 158.634Q144.197 158.634 144.544 158.296Q144.891 157.958 144.891 157.355V157.281Q144.891 156.669 144.547 156.335Q144.202 156.001 143.663 156.001Q143.132 156.001 142.784 156.335Q142.435 156.669 142.435 157.281V157.355Q142.435 157.958 142.784 158.296Q143.132 158.634 143.663 158.634Z M148.53 159.442Q147.779 159.442 147.282 159.106Q146.784 158.77 146.678 158.093L147.446 157.906Q147.505 158.237 147.659 158.426Q147.814 158.615 148.04 158.696Q148.267 158.777 148.53 158.777Q148.927 158.777 149.138 158.627Q149.35 158.478 149.35 158.238Q149.35 157.995 149.149 157.883Q148.948 157.77 148.56 157.701L148.286 157.652Q147.886 157.578 147.559 157.441Q147.232 157.303 147.037 157.064Q146.841 156.824 146.841 156.452Q146.841 155.891 147.261 155.584Q147.68 155.278 148.367 155.278Q149.031 155.278 149.459 155.576Q149.886 155.873 150.011 156.384L149.246 156.605Q149.176 156.245 148.944 156.094Q148.711 155.944 148.367 155.944Q148.026 155.944 147.835 156.068Q147.644 156.191 147.644 156.421Q147.644 156.657 147.832 156.769Q148.02 156.881 148.342 156.937L148.616 156.985Q149.048 157.06 149.396 157.189Q149.745 157.318 149.948 157.555Q150.152 157.792 150.152 158.191Q150.152 158.79 149.713 159.116Q149.273 159.442 148.53 159.442Z M154.992 159.442Q154.418 159.442 153.959 159.201Q153.499 158.959 153.233 158.503Q152.966 158.047 152.966 157.411V157.31Q152.966 156.67 153.233 156.216Q153.499 155.761 153.959 155.52Q154.418 155.278 154.992 155.278Q155.557 155.278 155.958 155.482Q156.359 155.687 156.6 156.032Q156.84 156.377 156.912 156.795L156.112 156.963Q156.078 156.698 155.949 156.482Q155.82 156.267 155.587 156.139Q155.353 156.012 155.007 156.012Q154.661 156.012 154.385 156.166Q154.109 156.321 153.949 156.614Q153.79 156.908 153.79 157.323V157.397Q153.79 157.813 153.949 158.106Q154.109 158.4 154.385 158.554Q154.661 158.709 155.007 158.709Q155.528 158.709 155.799 158.439Q156.07 158.169 156.139 157.752L156.939 157.936Q156.846 158.343 156.602 158.689Q156.359 159.034 155.958 159.238Q155.557 159.442 154.992 159.442Z M157.894 159.33V153.73H158.718V159.33Z M161.16 159.442Q160.742 159.442 160.407 159.297Q160.073 159.152 159.878 158.872Q159.684 158.592 159.684 158.193Q159.684 157.79 159.878 157.521Q160.073 157.252 160.414 157.116Q160.755 156.981 161.186 156.981H162.392V156.726Q162.392 156.379 162.182 156.169Q161.972 155.96 161.541 155.96Q161.117 155.96 160.893 156.16Q160.668 156.36 160.595 156.685L159.83 156.435Q159.926 156.117 160.136 155.856Q160.347 155.596 160.699 155.437Q161.05 155.278 161.551 155.278Q162.318 155.278 162.756 155.667Q163.194 156.057 163.194 156.781V158.404Q163.194 158.644 163.418 158.644H163.758V159.33H163.142Q162.862 159.33 162.687 159.185Q162.512 159.039 162.512 158.794V158.769H162.385Q162.328 158.893 162.198 159.053Q162.068 159.213 161.819 159.328Q161.571 159.442 161.16 159.442ZM161.286 158.761Q161.777 158.761 162.084 158.477Q162.392 158.193 162.392 157.701V157.615H161.236Q160.908 157.615 160.707 157.756Q160.507 157.897 160.507 158.169Q160.507 158.441 160.715 158.601Q160.924 158.761 161.286 158.761Z M164.558 159.33V155.39H165.382V159.33ZM164.97 154.853Q164.732 154.853 164.567 154.697Q164.403 154.541 164.403 154.292Q164.403 154.04 164.567 153.885Q164.732 153.73 164.97 153.73Q165.216 153.73 165.377 153.885Q165.537 154.04 165.537 154.292Q165.537 154.541 165.377 154.697Q165.216 154.853 164.97 154.853Z M166.606 159.33V155.39H167.414V155.85H167.541Q167.65 155.645 167.899 155.483Q168.147 155.321 168.573 155.321Q169.014 155.321 169.282 155.503Q169.551 155.685 169.684 155.963H169.811Q169.947 155.69 170.209 155.505Q170.471 155.321 170.95 155.321Q171.329 155.321 171.627 155.479Q171.926 155.638 172.102 155.946Q172.278 156.253 172.278 156.703V159.33H171.454V156.766Q171.454 156.407 171.257 156.213Q171.06 156.018 170.702 156.018Q170.316 156.018 170.085 156.266Q169.854 156.514 169.854 156.981V159.33H169.03V156.766Q169.03 156.407 168.833 156.213Q168.636 156.018 168.278 156.018Q167.892 156.018 167.661 156.266Q167.43 156.514 167.43 156.981V159.33Z M173.957 159.442Q173.676 159.442 173.489 159.258Q173.301 159.075 173.301 158.787Q173.301 158.5 173.489 158.318Q173.676 158.135 173.957 158.135Q174.238 158.135 174.423 158.319Q174.608 158.503 174.608 158.79Q174.608 159.077 174.423 159.26Q174.238 159.442 173.957 159.442Z" fill="#71717A"/><path d="M26.2227 148.93V142H29.1284Q29.7783 142 30.2651 142.224Q30.752 142.449 31.0244 142.863Q31.2969 143.277 31.2969 143.848V143.96Q31.2969 144.611 30.9861 145.003Q30.6752 145.394 30.2327 145.555V145.712Q30.6114 145.729 30.8361 145.965Q31.0608 146.202 31.0608 146.632V148.93H29.9896V146.779Q29.9896 146.513 29.8486 146.358Q29.7075 146.202 29.3996 146.202H27.2939V148.93ZM27.2939 145.229H29.0175Q29.5902 145.229 29.908 144.939Q30.2258 144.648 30.2258 144.142V144.06Q30.2258 143.555 29.9146 143.264Q29.6035 142.973 29.0175 142.973H27.2939Z M34.7426 149.069Q34.0066 149.069 33.4507 148.757Q32.8948 148.445 32.5847 147.878Q32.2746 147.31 32.2746 146.552V146.433Q32.2746 145.671 32.5815 145.105Q32.8884 144.54 33.4376 144.228Q33.9868 143.916 34.7055 143.916Q35.4109 143.916 35.9403 144.224Q36.4697 144.532 36.7667 145.087Q37.0637 145.642 37.0637 146.388V146.776H33.3062Q33.3294 147.419 33.743 147.796Q34.1566 148.174 34.7684 148.174Q35.345 148.174 35.6359 147.918Q35.9267 147.663 36.0796 147.327L36.9295 147.758Q36.7875 148.039 36.5251 148.345Q36.2628 148.65 35.8341 148.859Q35.4054 149.069 34.7426 149.069ZM33.3161 145.99H36.0286Q35.989 145.44 35.6299 145.125Q35.2708 144.811 34.6991 144.811Q34.118 144.811 33.7586 145.125Q33.3992 145.44 33.3161 145.99Z M40.5624 149.069Q39.853 149.069 39.2843 148.77Q38.7155 148.471 38.3858 147.907Q38.0562 147.343 38.0562 146.555V146.43Q38.0562 145.639 38.3858 145.076Q38.7155 144.513 39.2843 144.215Q39.853 143.916 40.5624 143.916Q41.2618 143.916 41.758 144.169Q42.2543 144.421 42.5523 144.848Q42.8502 145.276 42.9389 145.792L41.9493 146.001Q41.9063 145.673 41.7469 145.406Q41.5875 145.139 41.2987 144.981Q41.0098 144.824 40.5817 144.824Q40.1535 144.824 39.8117 145.015Q39.4699 145.206 39.2724 145.569Q39.0749 145.933 39.0749 146.446V146.538Q39.0749 147.052 39.2724 147.416Q39.4699 147.779 39.8117 147.97Q40.1535 148.161 40.5817 148.161Q41.2256 148.161 41.561 147.827Q41.8964 147.494 41.9825 146.977L42.972 147.205Q42.8572 147.709 42.5557 148.136Q42.2543 148.563 41.758 148.816Q41.2618 149.069 40.5624 149.069Z M46.4425 149.069Q45.7099 149.069 45.1379 148.767Q44.5659 148.464 44.2414 147.902Q43.917 147.339 43.917 146.565V146.42Q43.917 145.645 44.2414 145.083Q44.5659 144.52 45.1379 144.218Q45.7099 143.916 46.4425 143.916Q47.1751 143.916 47.747 144.218Q48.319 144.52 48.6435 145.083Q48.968 145.645 48.968 146.42V146.565Q48.968 147.339 48.6435 147.902Q48.319 148.464 47.747 148.767Q47.1751 149.069 46.4425 149.069ZM46.4425 148.161Q47.1137 148.161 47.5314 147.731Q47.9492 147.301 47.9492 146.538V146.446Q47.9492 145.684 47.5347 145.254Q47.1201 144.824 46.4425 144.824Q45.7747 144.824 45.3552 145.254Q44.9357 145.684 44.9357 146.446V146.538Q44.9357 147.301 45.3552 147.731Q45.7747 148.161 46.4425 148.161Z M50.2431 148.93V144.055H51.242V144.626H51.3994Q51.5187 144.319 51.7781 144.177Q52.0375 144.035 52.426 144.035H53.0096V144.949H52.3889Q51.8895 144.949 51.5756 145.221Q51.2618 145.492 51.2618 146.062V148.93Z M55.9108 149.069Q55.3059 149.069 54.7909 148.773Q54.2758 148.478 53.9672 147.915Q53.6586 147.353 53.6586 146.565V146.42Q53.6586 145.632 53.9655 145.07Q54.2724 144.507 54.7859 144.211Q55.2995 143.916 55.9108 143.916Q56.3875 143.916 56.712 144.034Q57.0364 144.152 57.2401 144.332Q57.4438 144.513 57.5532 144.716H57.7106V142H58.7294V148.93H57.7304V148.236H57.573Q57.3909 148.555 57.0082 148.812Q56.6256 149.069 55.9108 149.069ZM56.2039 148.174Q56.8647 148.174 57.2941 147.749Q57.7235 147.324 57.7235 146.538V146.446Q57.7235 145.661 57.2973 145.236Q56.8711 144.811 56.2039 144.811Q55.5465 144.811 55.1154 145.236Q54.6842 145.661 54.6842 146.446V146.538Q54.6842 147.324 55.1154 147.749Q55.5465 148.174 56.2039 148.174Z M62.4725 149.069Q61.7365 149.069 61.1806 148.757Q60.6247 148.445 60.3146 147.878Q60.0045 147.31 60.0045 146.552V146.433Q60.0045 145.671 60.3114 145.105Q60.6183 144.54 61.1675 144.228Q61.7167 143.916 62.4354 143.916Q63.1408 143.916 63.6702 144.224Q64.1996 144.532 64.4966 145.087Q64.7936 145.642 64.7936 146.388V146.776H61.0361Q61.0593 147.419 61.4729 147.796Q61.8865 148.174 62.4983 148.174Q63.0749 148.174 63.3658 147.918Q63.6566 147.663 63.8095 147.327L64.6594 147.758Q64.5174 148.039 64.255 148.345Q63.9927 148.65 63.564 148.859Q63.1353 149.069 62.4725 149.069ZM61.046 145.99H63.7585Q63.7189 145.44 63.3598 145.125Q63.0007 144.811 62.429 144.811Q61.8479 144.811 61.4885 145.125Q61.1291 145.44 61.046 145.99Z M68.0383 149.069Q67.4334 149.069 66.9184 148.773Q66.4033 148.478 66.0947 147.915Q65.7861 147.353 65.7861 146.565V146.42Q65.7861 145.632 66.093 145.07Q66.3999 144.507 66.9134 144.211Q67.427 143.916 68.0383 143.916Q68.515 143.916 68.8395 144.034Q69.1639 144.152 69.3676 144.332Q69.5713 144.513 69.6807 144.716H69.8381V142H70.8569V148.93H69.8579V148.236H69.7005Q69.5184 148.555 69.1357 148.812Q68.7531 149.069 68.0383 149.069ZM68.3314 148.174Q68.9922 148.174 69.4216 147.749Q69.851 147.324 69.851 146.538V146.446Q69.851 145.661 69.4248 145.236Q68.9986 144.811 68.3314 144.811Q67.674 144.811 67.2429 145.236Q66.8117 145.661 66.8117 146.446V146.538Q66.8117 147.324 67.2429 147.749Q67.674 148.174 68.3314 148.174Z M77.1627 149.069Q76.4533 149.069 75.8846 148.77Q75.3158 148.471 74.9861 147.907Q74.6565 147.343 74.6565 146.555V146.43Q74.6565 145.639 74.9861 145.076Q75.3158 144.513 75.8846 144.215Q76.4533 143.916 77.1627 143.916Q77.8621 143.916 78.3583 144.169Q78.8546 144.421 79.1526 144.848Q79.4505 145.276 79.5392 145.792L78.5496 146.001Q78.5066 145.673 78.3472 145.406Q78.1878 145.139 77.899 144.981Q77.6101 144.824 77.182 144.824Q76.7538 144.824 76.412 145.015Q76.0702 145.206 75.8727 145.569Q75.6752 145.933 75.6752 146.446V146.538Q75.6752 147.052 75.8727 147.416Q76.0702 147.779 76.412 147.97Q76.7538 148.161 77.182 148.161Q77.8259 148.161 78.1613 147.827Q78.4967 147.494 78.5828 146.977L79.5723 147.205Q79.4575 147.709 79.156 148.136Q78.8546 148.563 78.3583 148.816Q77.8621 149.069 77.1627 149.069Z M83.0428 149.069Q82.3102 149.069 81.7382 148.767Q81.1662 148.464 80.8417 147.902Q80.5173 147.339 80.5173 146.565V146.42Q80.5173 145.645 80.8417 145.083Q81.1662 144.52 81.7382 144.218Q82.3102 143.916 83.0428 143.916Q83.7754 143.916 84.3473 144.218Q84.9193 144.52 85.2438 145.083Q85.5683 145.645 85.5683 146.42V146.565Q85.5683 147.339 85.2438 147.902Q84.9193 148.464 84.3473 148.767Q83.7754 149.069 83.0428 149.069ZM83.0428 148.161Q83.714 148.161 84.1317 147.731Q84.5495 147.301 84.5495 146.538V146.446Q84.5495 145.684 84.135 145.254Q83.7204 144.824 83.0428 144.824Q82.375 144.824 81.9555 145.254Q81.536 145.684 81.536 146.446V146.538Q81.536 147.301 81.9555 147.731Q82.375 148.161 83.0428 148.161Z M88.8377 149.069Q87.9086 149.069 87.2931 148.653Q86.6775 148.237 86.5454 147.399L87.4963 147.168Q87.5691 147.577 87.7601 147.811Q87.9512 148.046 88.2318 148.145Q88.5125 148.245 88.8377 148.245Q89.3288 148.245 89.5904 148.061Q89.852 147.876 89.852 147.579Q89.852 147.278 89.6037 147.139Q89.3555 147 88.8748 146.914L88.5353 146.854Q88.0413 146.762 87.6364 146.592Q87.2314 146.422 86.9896 146.126Q86.7478 145.829 86.7478 145.368Q86.7478 144.674 87.2668 144.295Q87.7858 143.916 88.6363 143.916Q89.458 143.916 89.9869 144.284Q90.5158 144.652 90.6702 145.284L89.7233 145.557Q89.6371 145.112 89.3495 144.926Q89.062 144.74 88.6363 144.74Q88.214 144.74 87.9774 144.893Q87.7408 145.046 87.7408 145.33Q87.7408 145.623 87.9735 145.761Q88.2061 145.899 88.6051 145.969L88.9446 146.029Q89.4783 146.121 89.9096 146.281Q90.341 146.44 90.593 146.734Q90.845 147.027 90.845 147.521Q90.845 148.262 90.3012 148.665Q89.7574 149.069 88.8377 149.069Z M93.7645 148.93Q93.314 148.93 93.0502 148.665Q92.7863 148.399 92.7863 147.946V144.911H91.4479V144.055H92.7863V142.433H93.8051V144.055H95.2693V144.911H93.8051V147.777Q93.8051 148.074 94.0892 148.074H95.102V148.93Z M101.809 149.069Q101.101 149.069 100.715 148.812Q100.329 148.555 100.147 148.236H99.9896V148.93H98.9907V142H100.009V144.716H100.167Q100.283 144.513 100.483 144.332Q100.684 144.152 101.01 144.034Q101.336 143.916 101.809 143.916Q102.424 143.916 102.936 144.211Q103.448 144.507 103.755 145.07Q104.061 145.632 104.061 146.42V146.565Q104.061 147.353 103.753 147.915Q103.444 148.478 102.932 148.773Q102.421 149.069 101.809 149.069ZM101.516 148.174Q102.177 148.174 102.606 147.749Q103.036 147.324 103.036 146.538V146.446Q103.036 145.661 102.61 145.236Q102.183 144.811 101.516 144.811Q100.859 144.811 100.428 145.236Q99.9965 145.661 99.9965 146.446V146.538Q99.9965 147.324 100.428 147.749Q100.859 148.174 101.516 148.174Z M105.895 150.91V150.015H108.617Q108.901 150.015 108.901 149.718V148.221H108.744Q108.651 148.413 108.467 148.597Q108.283 148.781 107.977 148.899Q107.67 149.016 107.201 149.016Q106.647 149.016 106.213 148.77Q105.779 148.523 105.533 148.068Q105.287 147.613 105.287 146.988V144.055H106.305V146.91Q106.305 147.544 106.621 147.846Q106.936 148.147 107.497 148.147Q108.13 148.147 108.509 147.73Q108.888 147.312 108.888 146.522V144.055H109.907V149.926Q109.907 150.379 109.646 150.645Q109.386 150.91 108.929 150.91Z M115.447 149.069Q114.929 149.069 114.515 148.889Q114.101 148.709 113.86 148.363Q113.619 148.017 113.619 147.522Q113.619 147.025 113.86 146.692Q114.101 146.359 114.523 146.191Q114.945 146.023 115.479 146.023H116.971V145.707Q116.971 145.278 116.711 145.019Q116.452 144.759 115.918 144.759Q115.393 144.759 115.116 145.007Q114.838 145.254 114.748 145.657L113.8 145.347Q113.919 144.953 114.179 144.631Q114.44 144.309 114.875 144.112Q115.311 143.916 115.931 143.916Q116.88 143.916 117.422 144.398Q117.964 144.879 117.964 145.776V147.784Q117.964 148.081 118.241 148.081H118.661V148.93H117.899Q117.553 148.93 117.336 148.75Q117.12 148.57 117.12 148.266V148.236H116.963Q116.892 148.389 116.731 148.587Q116.57 148.786 116.262 148.927Q115.955 149.069 115.447 149.069ZM115.602 148.225Q116.21 148.225 116.59 147.874Q116.971 147.523 116.971 146.914V146.808H115.54Q115.135 146.808 114.886 146.982Q114.638 147.157 114.638 147.493Q114.638 147.83 114.896 148.028Q115.154 148.225 115.602 148.225Z M119.296 146.512V146.368Q119.296 145.599 119.604 145.051Q119.913 144.503 120.428 144.21Q120.943 143.916 121.561 143.916Q122.275 143.916 122.655 144.179Q123.034 144.443 123.21 144.749H123.367V144.055H124.359V149.926Q124.359 150.379 124.101 150.645Q123.842 150.91 123.385 150.91H120.098V150.015H123.06Q123.348 150.015 123.348 149.718V148.164H123.19Q123.081 148.35 122.884 148.536Q122.686 148.722 122.365 148.843Q122.044 148.964 121.561 148.964Q120.943 148.964 120.426 148.67Q119.909 148.376 119.602 147.827Q119.296 147.277 119.296 146.512ZM121.841 148.069Q122.502 148.069 122.931 147.651Q123.36 147.232 123.36 146.486V146.394Q123.36 145.638 122.934 145.224Q122.508 144.811 121.841 144.811Q121.184 144.811 120.752 145.224Q120.321 145.638 120.321 146.394V146.486Q120.321 147.232 120.752 147.651Q121.184 148.069 121.841 148.069Z M128.1 149.069Q127.364 149.069 126.808 148.757Q126.252 148.445 125.942 147.878Q125.632 147.31 125.632 146.552V146.433Q125.632 145.671 125.938 145.105Q126.245 144.54 126.795 144.228Q127.344 143.916 128.063 143.916Q128.768 143.916 129.297 144.224Q129.827 144.532 130.124 145.087Q130.421 145.642 130.421 146.388V146.776H126.663Q126.686 147.419 127.1 147.796Q127.514 148.174 128.125 148.174Q128.702 148.174 128.993 147.918Q129.284 147.663 129.437 147.327L130.287 147.758Q130.144 148.039 129.882 148.345Q129.62 148.65 129.191 148.859Q128.762 149.069 128.1 149.069ZM126.673 145.99H129.386Q129.346 145.44 128.987 145.125Q128.628 144.811 128.056 144.811Q127.475 144.811 127.116 145.125Q126.756 145.44 126.673 145.99Z M131.651 148.93V144.055H132.65V144.785H132.807Q132.947 144.482 133.301 144.225Q133.656 143.968 134.357 143.968Q134.914 143.968 135.346 144.215Q135.779 144.462 136.025 144.915Q136.271 145.369 136.271 146V148.93H135.252V146.078Q135.252 145.441 134.937 145.139Q134.621 144.838 134.061 144.838Q133.428 144.838 133.049 145.257Q132.669 145.676 132.669 146.467V148.93Z M139.433 148.93Q138.983 148.93 138.719 148.665Q138.455 148.399 138.455 147.946V144.911H137.117V144.055H138.455V142.433H139.474V144.055H140.938V144.911H139.474V147.777Q139.474 148.074 139.758 148.074H140.771V148.93Z M146.167 149.069Q145.649 149.069 145.235 148.889Q144.821 148.709 144.58 148.363Q144.339 148.017 144.339 147.522Q144.339 147.025 144.58 146.692Q144.821 146.359 145.243 146.191Q145.665 146.023 146.198 146.023H147.69V145.707Q147.69 145.278 147.431 145.019Q147.171 144.759 146.637 144.759Q146.113 144.759 145.835 145.007Q145.557 145.254 145.467 145.657L144.52 145.347Q144.639 144.953 144.899 144.631Q145.16 144.309 145.595 144.112Q146.031 143.916 146.65 143.916Q147.6 143.916 148.141 144.398Q148.683 144.879 148.683 145.776V147.784Q148.683 148.081 148.96 148.081H149.381V148.93H148.618Q148.273 148.93 148.056 148.75Q147.839 148.57 147.839 148.266V148.236H147.682Q147.612 148.389 147.45 148.587Q147.289 148.786 146.982 148.927Q146.675 149.069 146.167 149.069ZM146.322 148.225Q146.93 148.225 147.31 147.874Q147.69 147.523 147.69 146.914V146.808H146.26Q145.854 146.808 145.606 146.982Q145.358 147.157 145.358 147.493Q145.358 147.83 145.616 148.028Q145.874 148.225 146.322 148.225Z M150.372 148.93V144.055H151.371V144.785H151.528Q151.668 144.482 152.022 144.225Q152.376 143.968 153.078 143.968Q153.635 143.968 154.067 144.215Q154.499 144.462 154.746 144.915Q154.992 145.369 154.992 146V148.93H153.973V146.078Q153.973 145.441 153.658 145.139Q153.342 144.838 152.782 144.838Q152.149 144.838 151.77 145.257Q151.39 145.676 151.39 146.467V148.93Z M158.475 149.069Q157.87 149.069 157.355 148.773Q156.84 148.478 156.531 147.915Q156.223 147.353 156.223 146.565V146.42Q156.223 145.632 156.529 145.07Q156.836 144.507 157.35 144.211Q157.863 143.916 158.475 143.916Q158.951 143.916 159.276 144.034Q159.6 144.152 159.804 144.332Q160.008 144.513 160.117 144.716H160.275V142H161.293V148.93H160.294V148.236H160.137Q159.955 148.555 159.572 148.812Q159.19 149.069 158.475 149.069ZM158.768 148.174Q159.429 148.174 159.858 147.749Q160.287 147.324 160.287 146.538V146.446Q160.287 145.661 159.861 145.236Q159.435 144.811 158.768 144.811Q158.111 144.811 157.679 145.236Q157.248 145.661 157.248 146.446V146.538Q157.248 147.324 157.679 147.749Q158.111 148.174 158.768 148.174Z M165.331 148.93V144.055H166.329V144.626H166.487Q166.606 144.319 166.866 144.177Q167.125 144.035 167.514 144.035H168.097V144.949H167.476Q166.977 144.949 166.663 145.221Q166.349 145.492 166.349 146.062V148.93Z M171.026 149.016Q170.473 149.016 170.039 148.77Q169.604 148.523 169.358 148.066Q169.112 147.61 169.112 146.985V144.055H170.131V146.907Q170.131 147.541 170.446 147.844Q170.762 148.147 171.322 148.147Q171.955 148.147 172.334 147.728Q172.713 147.309 172.713 146.518V144.055H173.732V148.93H172.733V148.2H172.576Q172.436 148.496 172.082 148.756Q171.727 149.016 171.026 149.016Z M175.24 148.93V144.055H176.239V144.785H176.397Q176.536 144.482 176.891 144.225Q177.245 143.968 177.947 143.968Q178.504 143.968 178.936 144.215Q179.368 144.462 179.615 144.915Q179.861 145.369 179.861 146V148.93H178.842V146.078Q178.842 145.441 178.527 145.139Q178.211 144.838 177.651 144.838Q177.018 144.838 176.638 145.257Q176.259 145.676 176.259 146.467V148.93Z M181.941 149.069Q181.594 149.069 181.361 148.841Q181.129 148.614 181.129 148.259Q181.129 147.903 181.361 147.677Q181.594 147.451 181.941 147.451Q182.288 147.451 182.517 147.679Q182.747 147.906 182.747 148.262Q182.747 148.617 182.517 148.843Q182.288 149.069 181.941 149.069Z" fill="#09090B"/><path d="M31.71 125.62Q29.5275 125.62 28.1325 124.675Q26.7375 123.73 26.445 121.975L29.055 121.3Q29.2125 122.088 29.5838 122.538Q29.955 122.988 30.5063 123.179Q31.0575 123.37 31.71 123.37Q32.7 123.37 33.1725 123.022Q33.645 122.673 33.645 122.155Q33.645 121.638 33.195 121.357Q32.745 121.075 31.755 120.895L31.125 120.783Q29.955 120.558 28.9875 120.164Q28.02 119.77 27.435 119.073Q26.85 118.375 26.85 117.273Q26.85 115.608 28.065 114.719Q29.28 113.83 31.26 113.83Q33.1275 113.83 34.365 114.663Q35.6025 115.495 35.985 116.845L33.3525 117.655Q33.1725 116.8 32.6213 116.44Q32.07 116.08 31.26 116.08Q30.45 116.08 30.0225 116.362Q29.595 116.643 29.595 117.138Q29.595 117.678 30.045 117.937Q30.495 118.195 31.26 118.33L31.89 118.443Q33.15 118.668 34.1738 119.039Q35.1975 119.41 35.7938 120.097Q36.39 120.783 36.39 121.953Q36.39 123.708 35.1188 124.664Q33.8475 125.62 31.71 125.62Z M38.865 129.805V114.145H41.655V115.495H42.06Q42.4425 114.843 43.2525 114.337Q44.0625 113.83 45.57 113.83Q46.92 113.83 48.0675 114.494Q49.215 115.158 49.9125 116.44Q50.61 117.723 50.61 119.545V119.905Q50.61 121.728 49.9125 123.01Q49.215 124.293 48.0675 124.957Q46.92 125.62 45.57 125.62Q44.5575 125.62 43.8713 125.384Q43.185 125.148 42.7688 124.777Q42.3525 124.405 42.105 124.023H41.7V129.805ZM44.715 123.145Q46.0425 123.145 46.9088 122.302Q47.775 121.458 47.775 119.838V119.613Q47.775 117.993 46.8975 117.149Q46.02 116.305 44.715 116.305Q43.41 116.305 42.5325 117.149Q41.655 117.993 41.655 119.613V119.838Q41.655 121.458 42.5325 122.302Q43.41 123.145 44.715 123.145Z M58.305 125.62Q56.64 125.62 55.3688 124.912Q54.0975 124.203 53.3888 122.909Q52.68 121.615 52.68 119.86V119.59Q52.68 117.835 53.3775 116.542Q54.075 115.248 55.335 114.539Q56.595 113.83 58.26 113.83Q59.9025 113.83 61.1175 114.562Q62.3325 115.293 63.0075 116.587Q63.6825 117.88 63.6825 119.59V120.558H55.56Q55.605 121.705 56.415 122.425Q57.225 123.145 58.395 123.145Q59.5875 123.145 60.15 122.628Q60.7125 122.11 61.005 121.48L63.3225 122.695Q63.0075 123.28 62.4113 123.967Q61.815 124.653 60.825 125.137Q59.835 125.62 58.305 125.62ZM55.5825 118.443H60.8025Q60.7125 117.475 60.0263 116.89Q59.34 116.305 58.2375 116.305Q57.09 116.305 56.415 116.89Q55.74 117.475 55.5825 118.443Z M66.2025 125.305V114.145H68.9925V115.608H69.3975Q69.6675 115.023 70.41 114.494Q71.1525 113.965 72.66 113.965Q73.965 113.965 74.9437 114.562Q75.9225 115.158 76.4625 116.204Q77.0025 117.25 77.0025 118.645V125.305H74.1675V118.87Q74.1675 117.61 73.5487 116.98Q72.93 116.35 71.7825 116.35Q70.4775 116.35 69.7575 117.217Q69.0375 118.083 69.0375 119.635V125.305Z M84.0225 125.305Q82.92 125.305 82.2338 124.619Q81.5475 123.933 81.5475 122.785V116.485H78.7575V114.145H81.5475V110.68H84.3825V114.145H87.4425V116.485H84.3825V122.29Q84.3825 122.965 85.0125 122.965H87.1725V125.305Z M96.6225 125.305 95.0475 114.145H97.86L98.85 123.393H99.255L100.695 114.145H105.24L106.68 123.393H107.085L108.075 114.145H110.888L109.312 125.305H104.61L103.17 116.058H102.765L101.325 125.305Z M113.363 125.305V109.555H116.198V115.518H116.603Q116.783 115.158 117.165 114.798Q117.548 114.438 118.189 114.202Q118.83 113.965 119.82 113.965Q121.125 113.965 122.104 114.562Q123.083 115.158 123.623 116.204Q124.163 117.25 124.163 118.645V125.305H121.328V118.87Q121.328 117.61 120.709 116.98Q120.09 116.35 118.943 116.35Q117.638 116.35 116.918 117.217Q116.198 118.083 116.198 119.635V125.305Z M130.688 125.62Q129.495 125.62 128.55 125.204Q127.605 124.788 127.054 123.989Q126.503 123.19 126.503 122.043Q126.503 120.895 127.054 120.119Q127.605 119.343 128.584 118.949Q129.562 118.555 130.823 118.555H133.882V117.925Q133.882 117.138 133.387 116.632Q132.893 116.125 131.812 116.125Q130.755 116.125 130.238 116.609Q129.72 117.093 129.562 117.858L126.953 116.98Q127.223 116.125 127.819 115.417Q128.415 114.708 129.416 114.269Q130.418 113.83 131.858 113.83Q134.062 113.83 135.345 114.933Q136.627 116.035 136.627 118.128V122.29Q136.627 122.965 137.257 122.965H138.157V125.305H136.268Q135.435 125.305 134.895 124.9Q134.355 124.495 134.355 123.82V123.798H133.928Q133.838 124.068 133.523 124.507Q133.208 124.945 132.533 125.283Q131.858 125.62 130.688 125.62ZM131.183 123.325Q132.375 123.325 133.129 122.662Q133.882 121.998 133.882 120.895V120.67H131.025Q130.238 120.67 129.788 121.008Q129.338 121.345 129.338 121.953Q129.338 122.56 129.81 122.943Q130.282 123.325 131.183 123.325Z M143.692 125.305Q142.59 125.305 141.904 124.619Q141.218 123.933 141.218 122.785V116.485H138.428V114.145H141.218V110.68H144.053V114.145H147.113V116.485H144.053V122.29Q144.053 122.965 144.683 122.965H146.843V125.305Z M151.466 125.62Q150.555 125.62 149.936 125.019Q149.317 124.417 149.317 123.478Q149.317 122.538 149.936 121.942Q150.555 121.345 151.466 121.345Q152.377 121.345 152.985 121.947Q153.593 122.548 153.593 123.488Q153.593 124.428 152.985 125.024Q152.377 125.62 151.466 125.62Z" fill="#09090B"/><path d="M32.4525 98.1703Q30.63 98.1703 29.235 97.5178Q27.84 96.8653 27.0525 95.6503Q26.265 94.4353 26.265 92.7253V92.0953H29.19V92.7253Q29.19 94.1428 30.0675 94.8515Q30.945 95.5603 32.4525 95.5603Q33.9825 95.5603 34.7362 94.9528Q35.49 94.3453 35.49 93.4003Q35.49 92.7478 35.1188 92.3428Q34.7475 91.9378 34.0388 91.679Q33.33 91.4203 32.3175 91.1953L31.8 91.0828Q30.18 90.7228 29.0213 90.1715Q27.8625 89.6203 27.2438 88.7203Q26.625 87.8203 26.625 86.3803Q26.625 84.9403 27.3113 83.9165Q27.9975 82.8928 29.2463 82.3415Q30.495 81.7903 32.1825 81.7903Q33.87 81.7903 35.1863 82.364Q36.5025 82.9378 37.2563 84.074Q38.01 85.2103 38.01 86.9203V87.5953H35.085V86.9203Q35.085 86.0203 34.7362 85.469Q34.3875 84.9178 33.735 84.659Q33.0825 84.4003 32.1825 84.4003Q30.8325 84.4003 30.1913 84.9065Q29.55 85.4128 29.55 86.2903Q29.55 86.8753 29.8538 87.2803Q30.1575 87.6853 30.765 87.9553Q31.3725 88.2253 32.3175 88.4278L32.835 88.5403Q34.5225 88.9003 35.7713 89.4628Q37.02 90.0253 37.7175 90.9478Q38.415 91.8703 38.415 93.3103Q38.415 94.7503 37.6838 95.8415Q36.9525 96.9328 35.6138 97.5515Q34.275 98.1703 32.4525 98.1703Z M45.795 98.1703Q44.13 98.1703 42.8588 97.4615Q41.5875 96.7528 40.8788 95.459Q40.17 94.1653 40.17 92.4103V92.1403Q40.17 90.3853 40.8675 89.0915Q41.565 87.7978 42.825 87.089Q44.085 86.3803 45.75 86.3803Q47.3925 86.3803 48.6075 87.1115Q49.8225 87.8428 50.4975 89.1365Q51.1725 90.4303 51.1725 92.1403V93.1078H43.05Q43.095 94.2553 43.905 94.9753Q44.715 95.6953 45.885 95.6953Q47.0775 95.6953 47.64 95.1778Q48.2025 94.6603 48.495 94.0303L50.8125 95.2453Q50.4975 95.8303 49.9013 96.5165Q49.305 97.2028 48.315 97.6865Q47.325 98.1703 45.795 98.1703ZM43.0725 90.9928H48.2925Q48.2025 90.0253 47.5162 89.4403Q46.83 88.8553 45.7275 88.8553Q44.58 88.8553 43.905 89.4403Q43.23 90.0253 43.0725 90.9928Z M58.7775 98.1703Q57.1125 98.1703 55.8413 97.4615Q54.57 96.7528 53.8613 95.459Q53.1525 94.1653 53.1525 92.4103V92.1403Q53.1525 90.3853 53.85 89.0915Q54.5475 87.7978 55.8075 87.089Q57.0675 86.3803 58.7325 86.3803Q60.375 86.3803 61.59 87.1115Q62.805 87.8428 63.48 89.1365Q64.155 90.4303 64.155 92.1403V93.1078H56.0325Q56.0775 94.2553 56.8875 94.9753Q57.6975 95.6953 58.8675 95.6953Q60.06 95.6953 60.6225 95.1778Q61.185 94.6603 61.4775 94.0303L63.795 95.2453Q63.48 95.8303 62.8838 96.5165Q62.2875 97.2028 61.2975 97.6865Q60.3075 98.1703 58.7775 98.1703ZM56.055 90.9928H61.275Q61.185 90.0253 60.4988 89.4403Q59.8125 88.8553 58.71 88.8553Q57.5625 88.8553 56.8875 89.4403Q56.2125 90.0253 56.055 90.9928Z M73.29 97.8553 71.715 86.6953H74.5275L75.5175 95.9428H75.9225L77.3625 86.6953H81.9075L83.3475 95.9428H83.7525L84.7425 86.6953H87.555L85.98 97.8553H81.2775L79.8375 88.6078H79.4325L77.9925 97.8553Z M90.03 97.8553V82.1053H92.865V88.0678H93.27Q93.45 87.7078 93.8325 87.3478Q94.215 86.9878 94.8563 86.7515Q95.4975 86.5153 96.4875 86.5153Q97.7925 86.5153 98.7713 87.1115Q99.75 87.7078 100.29 88.754Q100.83 89.8003 100.83 91.1953V97.8553H97.995V91.4203Q97.995 90.1603 97.3762 89.5303Q96.7575 88.9003 95.61 88.9003Q94.305 88.9003 93.585 89.7665Q92.865 90.6328 92.865 92.1853V97.8553Z M103.89 97.8553V86.6953H106.725V97.8553ZM105.308 85.3903Q104.543 85.3903 104.014 84.8953Q103.485 84.4003 103.485 83.5903Q103.485 82.7803 104.014 82.2853Q104.543 81.7903 105.308 81.7903Q106.095 81.7903 106.613 82.2853Q107.13 82.7803 107.13 83.5903Q107.13 84.4003 106.613 84.8953Q106.095 85.3903 105.308 85.3903Z M115.118 98.1703Q113.498 98.1703 112.181 97.4953Q110.865 96.8203 110.1 95.5378Q109.335 94.2553 109.335 92.4328V92.1178Q109.335 90.2953 110.1 89.0128Q110.865 87.7303 112.181 87.0553Q113.498 86.3803 115.118 86.3803Q116.715 86.3803 117.863 86.9428Q119.01 87.5053 119.719 88.484Q120.428 89.4628 120.653 90.7003L117.908 91.2853Q117.818 90.6103 117.503 90.0703Q117.188 89.5303 116.614 89.2153Q116.04 88.9003 115.185 88.9003Q114.33 88.9003 113.644 89.2715Q112.958 89.6428 112.564 90.374Q112.17 91.1053 112.17 92.1628V92.3878Q112.17 93.4453 112.564 94.1765Q112.958 94.9078 113.644 95.279Q114.33 95.6503 115.185 95.6503Q116.468 95.6503 117.131 94.9865Q117.795 94.3228 117.975 93.2428L120.72 93.8953Q120.428 95.0878 119.719 96.0665Q119.01 97.0453 117.863 97.6078Q116.715 98.1703 115.118 98.1703Z M123.06 97.8553V82.1053H125.895V88.0678H126.3Q126.48 87.7078 126.863 87.3478Q127.245 86.9878 127.886 86.7515Q128.528 86.5153 129.518 86.5153Q130.823 86.5153 131.801 87.1115Q132.78 87.7078 133.32 88.754Q133.86 89.8003 133.86 91.1953V97.8553H131.025V91.4203Q131.025 90.1603 130.406 89.5303Q129.788 88.9003 128.64 88.9003Q127.335 88.9003 126.615 89.7665Q125.895 90.6328 125.895 92.1853V97.8553Z M146.1 98.1703Q144.908 98.1703 143.963 97.754Q143.018 97.3378 142.466 96.539Q141.915 95.7403 141.915 94.5928Q141.915 93.4453 142.466 92.669Q143.018 91.8928 143.996 91.499Q144.975 91.1053 146.235 91.1053H149.295V90.4753Q149.295 89.6878 148.8 89.1815Q148.305 88.6753 147.225 88.6753Q146.168 88.6753 145.65 89.159Q145.133 89.6428 144.975 90.4078L142.365 89.5303Q142.635 88.6753 143.231 87.9665Q143.828 87.2578 144.829 86.819Q145.83 86.3803 147.27 86.3803Q149.475 86.3803 150.758 87.4828Q152.04 88.5853 152.04 90.6778V94.8403Q152.04 95.5153 152.67 95.5153H153.57V97.8553H151.68Q150.848 97.8553 150.308 97.4503Q149.768 97.0453 149.768 96.3703V96.3478H149.34Q149.25 96.6178 148.935 97.0565Q148.62 97.4953 147.945 97.8328Q147.27 98.1703 146.1 98.1703ZM146.595 95.8753Q147.788 95.8753 148.541 95.2115Q149.295 94.5478 149.295 93.4453V93.2203H146.438Q145.65 93.2203 145.2 93.5578Q144.75 93.8953 144.75 94.5028Q144.75 95.1103 145.223 95.4928Q145.695 95.8753 146.595 95.8753Z M154.875 92.3203V91.9603Q154.875 90.2053 155.573 88.9565Q156.27 87.7078 157.429 87.044Q158.588 86.3803 159.96 86.3803Q161.49 86.3803 162.278 86.9203Q163.065 87.4603 163.425 88.0453H163.83V86.6953H166.62V99.8353Q166.62 100.983 165.945 101.669Q165.27 102.355 164.145 102.355H156.675V99.8803H163.155Q163.785 99.8803 163.785 99.2053V96.3028H163.38Q163.155 96.6628 162.75 97.034Q162.345 97.4053 161.67 97.6528Q160.995 97.9003 159.96 97.9003Q158.588 97.9003 157.429 97.2365Q156.27 96.5728 155.573 95.324Q154.875 94.0753 154.875 92.3203ZM160.77 95.4253Q162.075 95.4253 162.953 94.5928Q163.83 93.7603 163.83 92.2528V92.0278Q163.83 90.4978 162.964 89.6765Q162.098 88.8553 160.77 88.8553Q159.465 88.8553 158.588 89.6765Q157.71 90.4978 157.71 92.0278V92.2528Q157.71 93.7603 158.588 94.5928Q159.465 95.4253 160.77 95.4253Z M174.855 98.1703Q173.19 98.1703 171.919 97.4615Q170.648 96.7528 169.939 95.459Q169.23 94.1653 169.23 92.4103V92.1403Q169.23 90.3853 169.928 89.0915Q170.625 87.7978 171.885 87.089Q173.145 86.3803 174.81 86.3803Q176.453 86.3803 177.668 87.1115Q178.883 87.8428 179.558 89.1365Q180.233 90.4303 180.233 92.1403V93.1078H172.11Q172.155 94.2553 172.965 94.9753Q173.775 95.6953 174.945 95.6953Q176.138 95.6953 176.7 95.1778Q177.263 94.6603 177.555 94.0303L179.873 95.2453Q179.558 95.8303 178.961 96.5165Q178.365 97.2028 177.375 97.6865Q176.385 98.1703 174.855 98.1703ZM172.133 90.9928H177.353Q177.263 90.0253 176.576 89.4403Q175.89 88.8553 174.788 88.8553Q173.64 88.8553 172.965 89.4403Q172.29 90.0253 172.133 90.9928Z M182.752 97.8553V86.6953H185.543V88.1578H185.948Q186.218 87.5728 186.96 87.044Q187.703 86.5153 189.21 86.5153Q190.515 86.5153 191.494 87.1115Q192.472 87.7078 193.012 88.754Q193.553 89.8003 193.553 91.1953V97.8553H190.718V91.4203Q190.718 90.1603 190.099 89.5303Q189.48 88.9003 188.333 88.9003Q187.028 88.9003 186.308 89.7665Q185.588 90.6328 185.588 92.1853V97.8553Z M200.572 97.8553Q199.47 97.8553 198.784 97.169Q198.097 96.4828 198.097 95.3353V89.0353H195.308V86.6953H198.097V83.2303H200.933V86.6953H203.993V89.0353H200.933V94.8403Q200.933 95.5153 201.562 95.5153H203.722V97.8553Z" fill="#09090B"/></svg>